<svg xmlns="http://www.w3.org/2000/svg" width="21" height="22" viewBox="0 0 21 22" fill="currentColor">
<path d="M10.4902 21.2617C9.07096 21.2617 7.73633 20.9915 6.48633 20.4512C5.24284 19.9173 4.14909 19.1784 3.20508 18.2344C2.26107 17.2904 1.51888 16.1966 0.978516 14.9531C0.444661 13.7031 0.177734 12.3685 0.177734 10.9492C0.177734 9.52344 0.444661 8.1888 0.978516 6.94531C1.51888 5.69531 2.26107 4.59831 3.20508 3.6543C4.14909 2.70378 5.24284 1.96484 6.48633 1.4375C7.73633 0.903646 9.07096 0.636719 10.4902 0.636719C11.916 0.636719 13.2507 0.903646 14.4941 1.4375C15.7441 1.96484 16.8411 2.70378 17.7852 3.6543C18.7292 4.59831 19.4681 5.69531 20.002 6.94531C20.5423 8.1888 20.8125 9.52344 20.8125 10.9492C20.8125 12.3685 20.5423 13.7031 20.002 14.9531C19.4681 16.1966 18.7292 17.2904 17.7852 18.2344C16.8411 19.1784 15.7441 19.9173 14.4941 20.4512C13.2507 20.9915 11.916 21.2617 10.4902 21.2617ZM10.4902 18.6934C11.5645 18.6934 12.5671 18.4915 13.498 18.0879C14.4355 17.6908 15.2591 17.1374 15.9688 16.4277C16.6784 15.7116 17.235 14.888 17.6387 13.957C18.0423 13.0195 18.2441 12.0169 18.2441 10.9492C18.2441 9.875 18.0423 8.86914 17.6387 7.93164C17.235 6.99414 16.6784 6.17383 15.9688 5.4707C15.2591 4.76107 14.4355 4.20768 13.498 3.81055C12.5671 3.4069 11.5645 3.20508 10.4902 3.20508C9.42253 3.20508 8.41992 3.4069 7.48242 3.81055C6.55143 4.20768 5.72786 4.76107 5.01172 5.4707C4.30208 6.17383 3.74544 6.99414 3.3418 7.93164C2.94466 8.86914 2.74609 9.875 2.74609 10.9492C2.74609 12.0169 2.94466 13.0195 3.3418 13.957C3.74544 14.888 4.30208 15.7116 5.01172 16.4277C5.72786 17.1374 6.55143 17.6908 7.48242 18.0879C8.41992 18.4915 9.42253 18.6934 10.4902 18.6934ZM5.87109 12.4922C5.44141 12.4922 5.07357 12.3424 4.76758 12.043C4.46159 11.737 4.30859 11.3691 4.30859 10.9395C4.30859 10.5098 4.46159 10.1419 4.76758 9.83594C5.07357 9.52995 5.44141 9.37695 5.87109 9.37695C6.29427 9.37695 6.65885 9.52995 6.96484 9.83594C7.27083 10.1419 7.42383 10.5098 7.42383 10.9395C7.42383 11.3691 7.27083 11.737 6.96484 12.043C6.66536 12.3424 6.30078 12.4922 5.87109 12.4922ZM10.4902 12.4922C10.0671 12.4922 9.70247 12.3424 9.39648 12.043C9.09049 11.737 8.9375 11.3691 8.9375 10.9395C8.9375 10.5098 9.09049 10.1419 9.39648 9.83594C9.70247 9.52995 10.0671 9.37695 10.4902 9.37695C10.9199 9.37695 11.2878 9.52995 11.5938 9.83594C11.8997 10.1419 12.0527 10.5098 12.0527 10.9395C12.0527 11.3691 11.8997 11.737 11.5938 12.043C11.2878 12.3424 10.9199 12.4922 10.4902 12.4922ZM15.1191 12.4922C14.6895 12.4922 14.3216 12.3424 14.0156 12.043C13.7096 11.737 13.5566 11.3691 13.5566 10.9395C13.5566 10.5098 13.7096 10.1419 14.0156 9.83594C14.3216 9.52995 14.6895 9.37695 15.1191 9.37695C15.5488 9.37695 15.9134 9.52995 16.2129 9.83594C16.5189 10.1419 16.6719 10.5098 16.6719 10.9395C16.6719 11.3691 16.5189 11.737 16.2129 12.043C15.9134 12.3424 15.5488 12.4922 15.1191 12.4922Z" fill="currentColor" fill-opacity="0.5"/>
</svg>