<svg width="11" height="18" viewBox="0 0 11 18" fill="none" xmlns="http://www.w3.org/2000/svg">
<path d="M0.330078 8.94922C0.336589 8.70182 0.385417 8.47721 0.476562 8.27539C0.567708 8.06706 0.710938 7.86523 0.90625 7.66992L8.28906 0.443359C8.58854 0.150391 8.94987 0.00390625 9.37305 0.00390625C9.65951 0.00390625 9.91992 0.0755208 10.1543 0.21875C10.3952 0.355469 10.5872 0.541016 10.7305 0.775391C10.8737 1.00977 10.9453 1.27018 10.9453 1.55664C10.9453 1.99284 10.776 2.3737 10.4375 2.69922L4.00195 8.93945L10.4375 15.1895C10.776 15.528 10.9453 15.9121 10.9453 16.3418C10.9453 16.6283 10.8737 16.8887 10.7305 17.123C10.5872 17.3574 10.3952 17.543 10.1543 17.6797C9.91992 17.8229 9.65951 17.8945 9.37305 17.8945C8.94987 17.8945 8.58854 17.7448 8.28906 17.4453L0.90625 10.2188C0.704427 10.0234 0.557943 9.82487 0.466797 9.62305C0.375651 9.41471 0.330078 9.1901 0.330078 8.94922Z" fill="currentColor" fill-opacity="0.5"/>
</svg>
