<svg width="16" height="17" viewBox="0 0 16 17" fill="none" xmlns="http://www.w3.org/2000/svg">
<path d="M0.216797 8.33008C0.216797 8.02409 0.327474 7.76042 0.548828 7.53906C0.770182 7.31771 1.03385 7.20703 1.33984 7.20703H6.87695V1.67969C6.87695 1.3737 6.98438 1.11003 7.19922 0.888672C7.42057 0.660807 7.6875 0.546875 8 0.546875C8.3125 0.546875 8.57617 0.660807 8.79102 0.888672C9.01237 1.11003 9.12305 1.3737 9.12305 1.67969V7.20703H14.6602C14.9661 7.20703 15.2266 7.31771 15.4414 7.53906C15.6628 7.76042 15.7734 8.02409 15.7734 8.33008C15.7734 8.64258 15.6628 8.90951 15.4414 9.13086C15.2266 9.35221 14.9661 9.46289 14.6602 9.46289H9.12305V14.9902C9.12305 15.2962 9.01237 15.5599 8.79102 15.7812C8.57617 16.0026 8.3125 16.1133 8 16.1133C7.6875 16.1133 7.42057 16.0026 7.19922 15.7812C6.98438 15.5599 6.87695 15.2962 6.87695 14.9902V9.46289H1.33984C1.03385 9.46289 0.770182 9.35221 0.548828 9.13086C0.327474 8.90951 0.216797 8.64258 0.216797 8.33008Z" fill="black" fill-opacity="0.5"/>
</svg>
