<svg xmlns="http://www.w3.org/2000/svg" width="24" height="21" viewBox="0 0 24 21" fill="none">
<path d="M1.53125 10.8477C0.828125 10.8477 0.378906 10.3789 0.378906 9.76367C0.378906 9.45117 0.535156 9.10938 0.837891 8.86523L10.457 0.779297C10.9355 0.378906 11.4727 0.183594 12 0.183594C12.5371 0.183594 13.0742 0.378906 13.543 0.779297L17.6543 4.23633V2.82031C17.6543 2.40039 17.9473 2.11719 18.3672 2.11719H19.9688C20.3887 2.11719 20.6719 2.40039 20.6719 2.82031V6.76562L23.1719 8.86523C23.4648 9.10938 23.6211 9.45117 23.6211 9.76367C23.6211 10.3789 23.1719 10.8477 22.4688 10.8477C22.1465 10.8477 21.834 10.6914 21.5605 10.457L20.6719 9.71484V18.1328C20.6719 19.5879 19.7734 20.4766 18.25 20.4766H5.75C4.23633 20.4766 3.33789 19.5879 3.33789 18.1328V9.71484L2.43945 10.457C2.17578 10.6914 1.85352 10.8477 1.53125 10.8477ZM14.6562 12.9375V18.2207H17.5469C18.1035 18.2207 18.416 17.9082 18.416 17.3418V7.82031L12.4883 2.84961C12.332 2.71289 12.166 2.64453 12 2.64453C11.8438 2.64453 11.6777 2.71289 11.5215 2.84961L5.58398 7.82031V17.3418C5.58398 17.9082 5.89648 18.2207 6.45312 18.2207H9.34375V12.9375C9.34375 12.498 9.63672 12.2148 10.0762 12.2148H13.9336C14.373 12.2148 14.6562 12.498 14.6562 12.9375Z" fill="currentColor"/>
</svg>