<svg xmlns="http://www.w3.org/2000/svg" width="21" height="15" viewBox="0 0 21 15" fill="none">
<path d="M2.16016 3.0332C1.34961 3.0332 0.675781 2.35938 0.675781 1.53906C0.675781 0.728516 1.34961 0.0546875 2.16016 0.0546875C2.98047 0.0546875 3.64453 0.728516 3.64453 1.53906C3.64453 2.35938 2.98047 3.0332 2.16016 3.0332ZM6.7793 2.60352C6.20312 2.60352 5.74414 2.10547 5.74414 1.53906C5.74414 0.972656 6.20312 0.484375 6.7793 0.484375H19.2793C19.8652 0.484375 20.3145 0.962891 20.3145 1.53906C20.3145 2.11523 19.8555 2.60352 19.2793 2.60352H6.7793ZM2.16016 8.82422C1.34961 8.82422 0.675781 8.15039 0.675781 7.33008C0.675781 6.51953 1.34961 5.8457 2.16016 5.8457C2.98047 5.8457 3.64453 6.51953 3.64453 7.33008C3.64453 8.15039 2.98047 8.82422 2.16016 8.82422ZM6.7793 8.39453C6.20312 8.39453 5.74414 7.89648 5.74414 7.33008C5.74414 6.76367 6.20312 6.27539 6.7793 6.27539H19.2793C19.8652 6.27539 20.3145 6.75391 20.3145 7.33008C20.3145 7.90625 19.8555 8.39453 19.2793 8.39453H6.7793ZM2.16016 14.6152C1.34961 14.6152 0.675781 13.9414 0.675781 13.1309C0.675781 12.3105 1.34961 11.6367 2.16016 11.6367C2.98047 11.6367 3.64453 12.3105 3.64453 13.1309C3.64453 13.9414 2.98047 14.6152 2.16016 14.6152ZM6.7793 14.1855C6.20312 14.1855 5.74414 13.6875 5.74414 13.1309C5.74414 12.5547 6.20312 12.0664 6.7793 12.0664H19.2793C19.8652 12.0664 20.3145 12.5449 20.3145 13.1309C20.3145 13.6973 19.8555 14.1855 19.2793 14.1855H6.7793Z" fill="currentColor" fill-opacity="0.5"/>
</svg>