<svg xmlns="http://www.w3.org/2000/svg" width="22" height="22" viewBox="0 0 22 22" fill="none">
<path d="M11 20.5293C10.8047 20.5293 10.6094 20.5195 10.4141 20.5098L9.91602 21.418C9.75 21.7207 9.47656 21.877 9.1543 21.8086C8.83203 21.75 8.60742 21.5156 8.55859 21.1836L8.41211 20.1582C8.03125 20.0508 7.66016 19.9141 7.30859 19.7578L6.52734 20.4414C6.27344 20.666 5.9707 20.7148 5.67773 20.5391C5.39453 20.373 5.26758 20.0898 5.33594 19.748L5.55078 18.7422C5.22852 18.5078 4.92578 18.2539 4.64258 17.9805L3.68555 18.3613C3.36328 18.4883 3.06055 18.4297 2.8457 18.166C2.64062 17.9121 2.61133 17.5898 2.79688 17.3066L3.34375 16.4375C3.12891 16.1055 2.92383 15.7637 2.75781 15.4121L1.72266 15.4316C1.38086 15.4414 1.11719 15.2852 1 14.9727C0.892578 14.6602 0.970703 14.3477 1.24414 14.1426L2.06445 13.5078C1.9668 13.127 1.89844 12.7363 1.84961 12.3359L0.873047 12.0137C0.550781 11.916 0.355469 11.6523 0.355469 11.3301C0.355469 10.998 0.550781 10.7441 0.873047 10.6367L1.84961 10.3242C1.89844 9.91406 1.9668 9.5332 2.06445 9.15234L1.24414 8.50781C0.980469 8.30273 0.882812 8 1 7.69727C1.11719 7.38477 1.38086 7.19922 1.72266 7.21875L2.74805 7.25781C2.92383 6.89648 3.12891 6.55469 3.34375 6.23242L2.79688 5.34375C2.62109 5.06055 2.63086 4.73828 2.8457 4.49414C3.06055 4.24023 3.37305 4.15234 3.68555 4.28906L4.64258 4.67969C4.92578 4.40625 5.22852 4.15234 5.55078 3.91797L5.3457 2.90234C5.27734 2.57031 5.38477 2.27734 5.67773 2.11133C5.96094 1.95508 6.29297 1.97461 6.53711 2.20898L7.29883 2.90234C7.66016 2.74609 8.03125 2.60938 8.41211 2.50195L8.56836 1.47656C8.61719 1.14453 8.82227 0.900391 9.1543 0.851562C9.47656 0.792969 9.75977 0.929688 9.92578 1.23242L10.4141 2.15039C10.6094 2.14062 10.8047 2.13086 11 2.13086C11.1953 2.13086 11.3906 2.14062 11.5859 2.15039L12.084 1.23242C12.25 0.939453 12.5234 0.783203 12.8457 0.851562C13.168 0.910156 13.3926 1.13477 13.4414 1.47656L13.5781 2.50195C13.959 2.60938 14.3398 2.73633 14.6914 2.90234L15.4629 2.21875C15.7266 1.99414 16.0293 1.94531 16.3223 2.12109C16.6055 2.28711 16.7324 2.57031 16.6641 2.91211L16.4492 3.91797C16.7617 4.14258 17.0645 4.39648 17.3477 4.67969L18.3145 4.29883C18.627 4.17188 18.9395 4.23047 19.1543 4.49414C19.3594 4.73828 19.3887 5.07031 19.2031 5.35352L18.6562 6.22266C18.8711 6.55469 19.0664 6.89648 19.2422 7.24805L20.2773 7.22852C20.6191 7.21875 20.8828 7.375 20.9902 7.6875C21.0977 8 21.0293 8.3125 20.7559 8.51758L19.9355 9.15234C20.0332 9.5332 20.1016 9.91406 20.1406 10.3242L21.127 10.6367C21.4492 10.7441 21.6348 10.998 21.6348 11.3301C21.6348 11.6523 21.4492 11.916 21.127 12.0137L20.1406 12.3359C20.1016 12.7363 20.0332 13.127 19.9355 13.5078L20.7559 14.1426C21.0195 14.3574 21.1172 14.6602 20.9902 14.9629C20.8828 15.2754 20.6191 15.4512 20.2773 15.4414L19.252 15.4023C19.0664 15.7637 18.8711 16.1055 18.6562 16.4277L19.2031 17.3164C19.3789 17.5996 19.3691 17.9121 19.1543 18.166C18.9395 18.4199 18.627 18.498 18.3145 18.3711L17.3574 17.9805C17.0645 18.2539 16.7715 18.5078 16.4492 18.7422L16.6543 19.7578C16.7227 20.0898 16.6152 20.3828 16.3125 20.5488C16.0293 20.7051 15.707 20.6758 15.4629 20.4512L14.7012 19.7578C14.3398 19.9141 13.9688 20.0508 13.5879 20.1582L13.4316 21.1836C13.3828 21.5156 13.1777 21.7598 12.8457 21.8086C12.5234 21.8574 12.2305 21.7305 12.0742 21.4277L11.5859 20.5098C11.3906 20.5195 11.1953 20.5293 11 20.5293ZM11 8.53711C12.2207 8.53711 13.2461 9.31836 13.6367 10.4023H18.0117C17.5527 6.93555 14.5938 4.25977 11 4.25977C10.0137 4.25977 9.08594 4.45508 8.23633 4.81641L10.4336 8.5957C10.6191 8.55664 10.8047 8.53711 11 8.53711ZM3.92969 11.3301C3.92969 13.5762 4.97461 15.5684 6.60547 16.8672L8.87109 13.1367C8.46094 12.6484 8.2168 12.0137 8.2168 11.3301C8.2168 10.6367 8.46094 10.0117 8.88086 9.52344L6.67383 5.73438C5.00391 7.0332 3.92969 9.05469 3.92969 11.3301ZM11 12.3848C11.5859 12.3848 12.0645 11.916 12.0645 11.3301C12.0645 10.7441 11.5859 10.2656 11 10.2656C10.4141 10.2656 9.94531 10.7441 9.94531 11.3301C9.94531 11.916 10.4141 12.3848 11 12.3848ZM11 18.4004C14.6035 18.4004 17.5723 15.7051 18.0117 12.2285H13.6465C13.2754 13.3223 12.2305 14.123 11 14.123C10.8047 14.123 10.6094 14.0938 10.4238 14.0547L8.14844 17.8047C9.01758 18.1855 9.98438 18.4004 11 18.4004Z" fill="currentColor"/>
</svg>