<svg xmlns="http://www.w3.org/2000/svg" width="19" height="19" viewBox="0 0 19 19" fill="none">
<path d="M0.251953 7.72852C0.251953 3.46094 3.70898 0.00390625 7.9668 0.00390625C12.2344 0.00390625 15.6914 3.46094 15.6914 7.72852C15.6914 9.25195 15.2324 10.6777 14.4512 11.8496L18.25 15.668C18.582 16 18.748 16.4395 18.748 16.9082C18.748 17.8945 18.0059 18.6562 17 18.6562C16.5312 18.6562 16.082 18.5 15.7402 18.1582L11.9023 14.3203C10.7695 15.0332 9.42188 15.4434 7.9668 15.4434C3.70898 15.4434 0.251953 11.9863 0.251953 7.72852ZM2.63477 7.72852C2.63477 10.668 5.02734 13.0605 7.9668 13.0605C10.916 13.0605 13.2988 10.668 13.2988 7.72852C13.2988 4.78906 10.916 2.39648 7.9668 2.39648C5.02734 2.39648 2.63477 4.78906 2.63477 7.72852Z" fill="currentColor" fill-opacity="0.5"/>
</svg>