<svg width="20" height="25" viewBox="0 0 20 25" fill="none" xmlns="http://www.w3.org/2000/svg">
<path d="M4.33594 24.043C3.22266 24.043 2.36979 23.7467 1.77734 23.1543C1.1849 22.5684 0.888672 21.722 0.888672 20.6152V11.1719C0.888672 10.0651 1.1849 9.21875 1.77734 8.63281C2.36979 8.04036 3.22266 7.74414 4.33594 7.74414H7.01172V10.2637H4.60938C4.21875 10.2637 3.91927 10.3613 3.71094 10.5566C3.50911 10.752 3.4082 11.0579 3.4082 11.4746V20.3027C3.4082 20.7194 3.50911 21.0254 3.71094 21.2207C3.91927 21.4225 4.21875 21.5234 4.60938 21.5234H15.3711C15.7617 21.5234 16.0612 21.4225 16.2695 21.2207C16.4779 21.0254 16.582 20.7194 16.582 20.3027V11.4746C16.582 11.0579 16.4779 10.752 16.2695 10.5566C16.0612 10.3613 15.7617 10.2637 15.3711 10.2637H12.9785V7.74414H15.6543C16.7676 7.74414 17.6204 8.04036 18.2129 8.63281C18.8053 9.21875 19.1016 10.0651 19.1016 11.1719V20.6152C19.1016 21.722 18.8053 22.5684 18.2129 23.1543C17.6204 23.7467 16.7676 24.043 15.6543 24.043H4.33594ZM9.99023 15.7812C9.67773 15.7812 9.41081 15.6706 9.18945 15.4492C8.97461 15.2279 8.86719 14.9674 8.86719 14.668V5.09766L8.96484 3.66211L8.50586 4.36523L7.31445 5.63477C7.11263 5.84961 6.86523 5.95703 6.57227 5.95703C6.31836 5.95703 6.09049 5.86914 5.88867 5.69336C5.69336 5.51758 5.5957 5.29297 5.5957 5.01953C5.5957 4.75911 5.69661 4.52799 5.89844 4.32617L9.10156 1.25C9.2513 1.10677 9.39779 1.00586 9.54102 0.947266C9.69076 0.888672 9.84049 0.859375 9.99023 0.859375C10.1465 0.859375 10.2962 0.888672 10.4395 0.947266C10.5892 1.00586 10.7389 1.10677 10.8887 1.25L14.0918 4.32617C14.2871 4.52799 14.3848 4.75911 14.3848 5.01953C14.3848 5.29297 14.2839 5.51758 14.082 5.69336C13.8867 5.86914 13.6621 5.95703 13.4082 5.95703C13.1152 5.95703 12.8711 5.84961 12.6758 5.63477L11.4844 4.36523L11.0254 3.66211L11.123 5.09766V14.668C11.123 14.9674 11.0124 15.2279 10.791 15.4492C10.5762 15.6706 10.3092 15.7812 9.99023 15.7812Z" fill="currentColor" fill-opacity="0.5"/>
</svg>
